<svg xmlns="http://www.w3.org/2000/svg" width="28" height="28" viewBox="0 0 28 28">
  <g id="组_369" data-name="组 369" transform="translate(-1009.099 -460.878)">
    <g id="组_361" data-name="组 361" transform="translate(1009.099 460.878)" opacity="0">
      <rect id="矩形_51" data-name="矩形 51" width="28" height="28" fill="#fff"/>
    </g>
    <g id="组_368" data-name="组 368" transform="translate(1009.099 460.878)">
      <g id="组_362" data-name="组 362" transform="translate(0 6.69)">
        <path id="路径_308" data-name="路径 308" d="M1031.849,488.877h-17.5a5.241,5.241,0,0,1-5.25-5.22V472.788a5.241,5.241,0,0,1,5.25-5.22h17.5a5.241,5.241,0,0,1,5.25,5.22v10.869A5.241,5.241,0,0,1,1031.849,488.877Zm-17.5-19.569a3.494,3.494,0,0,0-3.5,3.48v10.869a3.5,3.5,0,0,0,3.5,3.481h17.5a3.5,3.5,0,0,0,3.5-3.481V472.788a3.494,3.494,0,0,0-3.5-3.48Z" transform="translate(-1009.099 -467.568)"/>
      </g>
      <g id="组_363" data-name="组 363" transform="translate(6.279)">
        <path id="路径_309" data-name="路径 309" d="M1030.185,469.317a.891.891,0,0,1-.891-.891v-1.884c0-2.141-2.265-3.883-5.049-3.883h-1.782c-2.784,0-5.048,1.742-5.048,3.883v1.884a.891.891,0,0,1-1.782,0v-1.884c0-3.123,3.064-5.664,6.83-5.664h1.782c3.766,0,6.831,2.541,6.831,5.664v1.884A.891.891,0,0,1,1030.185,469.317Z" transform="translate(-1015.633 -460.878)"/>
      </g>
      <g id="组_367" data-name="组 367" transform="translate(5.536 10.01)">
        <g id="组_364" data-name="组 364" transform="translate(6.014)">
          <path id="路径_310" data-name="路径 310" d="M1024.381,478.554h-2.054a1.425,1.425,0,0,1-1.423-1.424v-4.571a1.424,1.424,0,0,1,1.423-1.423h2.054a1.425,1.425,0,0,1,1.423,1.423v4.571A1.426,1.426,0,0,1,1024.381,478.554Zm-2.054-6.082a.09.09,0,0,0-.087.087v4.571a.089.089,0,0,0,.087.087h2.054a.089.089,0,0,0,.087-.087v-4.571a.09.09,0,0,0-.087-.087Z" transform="translate(-1020.904 -471.136)"/>
        </g>
        <g id="组_365" data-name="组 365" transform="translate(0 2.818)">
          <path id="路径_311" data-name="路径 311" d="M1020.83,475.736h-5.049a.891.891,0,1,1,0-1.782h5.049a.891.891,0,0,1,0,1.782Z" transform="translate(-1014.89 -473.954)"/>
        </g>
        <g id="组_366" data-name="组 366" transform="translate(10.097 2.818)">
          <path id="路径_312" data-name="路径 312" d="M1030.927,475.736h-5.049a.891.891,0,0,1,0-1.782h5.049a.891.891,0,1,1,0,1.782Z" transform="translate(-1024.987 -473.954)"/>
        </g>
      </g>
    </g>
  </g>
</svg>
